<svg width="79" height="48" viewBox="0 0 79 48" fill="none" xmlns="http://www.w3.org/2000/svg">
<path d="M24.8602 0.989258H20.4537H15.9376L12.886 20.0151C12.8215 20.0237 12.757 20.028 12.6903 20.0366C5.94835 20.9333 0.716096 26.6086 0.77416 32.9548C0.799967 35.6086 1.70534 37.6817 3.329 39.3806C4.79567 40.9161 6.79352 41.7484 8.81072 41.7484C9.59997 41.7484 10.3914 41.6215 11.1548 41.3591C14.7892 40.1075 15.9957 37.0581 16.5613 34.2667C16.5613 34.2688 16.5591 34.2731 16.5591 34.2774C16.7225 31.1613 15.058 28.0839 11.8838 26.2624L10.8795 32.6043C10.557 34.4043 10.1376 35.4796 9.23868 35.7893C8.70104 35.9742 8.03868 35.7828 7.59136 35.314C7.01502 34.7097 6.67739 34.0366 6.66663 32.8989C6.63653 29.7269 9.13115 27.2366 11.8838 26.2624C12.7484 25.9505 13.6473 25.8043 14.6516 25.8043C15.6709 25.8043 16.7441 26 17.7247 26.329C21.443 27.2065 23.6967 31.1505 24.2537 35.4215L24.5806 37.8151H30.7677L24.8602 0.989258ZM18.5139 20.4237L20.2881 6.80861H20.3419H20.5075L22.4881 22.0022C21.2301 21.3161 19.8924 20.7807 18.5139 20.4237ZM77.8709 11.2602V37.8129H71.6967V11.2602H77.8709ZM59.8494 47.0108C67.9569 47.0108 68.5828 42.3893 68.5828 35.8581L68.6365 11.2624H65.4408C64.2903 11.2624 62.8795 12.1247 62.7828 13.2366L62.7075 14.0946L62.4086 13.286C61.8129 11.6796 60.3139 10.8301 58.0731 10.8301C55.8215 10.8301 54.1591 11.6946 53.1311 13.3979C52.1311 15.0538 51.9225 17.1957 51.9225 18.7011V29.0258C51.9225 31.5871 52.2967 33.4731 53.0666 34.7893C54.0021 36.3893 55.5161 37.1678 57.6989 37.1678C59.7634 37.1678 61.3247 36.2903 62.0946 34.6968L62.4623 33.9376V34.7807V37.7376C62.4623 40.3376 62.301 42.1785 60.2258 42.1785C59.7505 42.1785 58.2043 42.0172 58.2043 39.9419V39.8667H51.9763V39.9957C51.9763 42.0129 52.5225 43.6366 53.6 44.8194C54.9204 46.2731 57.0236 47.0108 59.8494 47.0108ZM62.3548 27.9527C62.3548 30.4839 61.9978 31.8559 60.1182 31.8559C58.3376 31.8559 58.0967 30.1548 58.0967 28.4903V19.2409C58.0967 17.157 58.8451 16.1441 60.3871 16.1441C62.1204 16.1441 62.3548 17.8452 62.3548 19.5097V27.9527ZM78.1935 5.42152C78.1935 7.30324 76.6967 8.77635 74.7849 8.77635C72.9032 8.77635 71.4301 7.30324 71.4301 5.42152C71.4301 3.50969 72.9032 2.01291 74.7849 2.01291C76.6645 2.01291 78.1935 3.54195 78.1935 5.42152ZM38.9118 19.8323V37.8151H32.6838L32.6301 11.2624H36.0924C37.2817 11.2624 38.6537 12.1011 38.8043 13.3505L38.8731 13.9226L39.1634 13.4258C40.1677 11.7054 41.7935 10.8323 43.9978 10.8323C47.544 10.8323 49.344 13.1183 49.344 17.6301V37.8172H43.1699V19.0258C43.1699 17.114 42.5075 16.1441 41.2021 16.1441C39.5118 16.1441 38.9118 17.1097 38.9118 19.8323Z" fill="#FF6153"/>
<path d="M16.5591 34.2774C16.871 32.9462 17.5935 27.8344 17.7226 26.3291C16.7441 26.0022 15.6688 25.8043 14.6495 25.8043C13.6452 25.8043 12.7462 25.9527 11.8817 26.2624C15.0581 28.0839 16.7226 31.1613 16.5591 34.2774Z" fill="#A03027"/>
</svg>
